<svg width="104" height="40" viewBox="0 0 104 40" fill="none" xmlns="http://www.w3.org/2000/svg">
<path d="M1.14362 39.9346H0V36.2348H1.1945C1.51577 36.2258 1.83362 36.3028 2.11521 36.4577C2.37012 36.6044 2.57456 36.8249 2.70155 37.0901C2.8466 37.399 2.91714 37.7376 2.9075 38.0787C2.91586 38.4212 2.8454 38.7611 2.70155 39.0721C2.57194 39.3421 2.36207 39.5655 2.10067 39.7117C1.80676 39.8688 1.47667 39.9457 1.14362 39.9346ZM0.448239 39.5373H1.11454C1.3794 39.5475 1.64214 39.4864 1.87534 39.3604C2.07524 39.2452 2.23249 39.0684 2.32358 38.8564C2.52232 38.3586 2.52232 37.8036 2.32358 37.3058C2.2338 37.098 2.08131 36.9235 1.88745 36.8066C1.66567 36.6831 1.41426 36.6228 1.16058 36.6322H0.433702L0.448239 39.5373Z" fill="#36A9E1"/>
<path d="M4.10684 36.2349V39.9347H3.66103V36.2349H4.10684Z" fill="#36A9E1"/>
<path d="M7.53769 37.3905C7.5 37.275 7.44704 37.165 7.3802 37.0634C7.31447 36.9689 7.23242 36.8869 7.13791 36.8211C7.0485 36.7503 6.94659 36.6969 6.83747 36.6636C6.71841 36.6258 6.59411 36.607 6.46918 36.6079C6.25766 36.6066 6.05013 36.6655 5.87072 36.7775C5.68333 36.9002 5.53528 37.0744 5.44429 37.2791C5.23102 37.7992 5.23102 38.3823 5.44429 38.9024C5.53817 39.1076 5.6897 39.281 5.88041 39.4015C6.06616 39.5154 6.28041 39.5742 6.49826 39.5711C6.69429 39.576 6.88816 39.5292 7.06037 39.4355C7.22063 39.3448 7.35174 39.2103 7.43835 39.0478C7.53412 38.8666 7.58168 38.6639 7.57646 38.459L7.71214 38.4881H6.60002V38.0907H8.02227V38.4881C8.0291 38.7658 7.96133 39.0402 7.82602 39.2828C7.70112 39.5039 7.51636 39.6853 7.29297 39.8062C7.05178 39.9325 6.78259 39.9958 6.51037 39.9903C6.20677 39.9976 5.90744 39.9177 5.64781 39.7601C5.39555 39.6006 5.19453 39.3718 5.06874 39.1011C4.924 38.7844 4.85355 38.4388 4.86279 38.0907C4.85839 37.8227 4.89851 37.5558 4.98151 37.3009C5.05151 37.0802 5.16523 36.8758 5.31587 36.7C5.45701 36.5375 5.63245 36.4084 5.82953 36.322C6.03461 36.231 6.25697 36.1856 6.4813 36.1888C6.6674 36.1872 6.85247 36.2167 7.02888 36.276C7.19231 36.331 7.34543 36.4129 7.48196 36.5183C7.61497 36.6237 7.72748 36.7526 7.8139 36.8987C7.90467 37.0477 7.96786 37.2118 8.00047 37.3833L7.53769 37.3905Z" fill="#36A9E1"/>
<path d="M9.23373 36.2349V39.9347H8.78549V36.2349H9.23373Z" fill="#36A9E1"/>
<path d="M9.92426 36.6322V36.2349H12.6985V36.6322H11.5355V39.9347H11.0873V36.6322H9.92426Z" fill="#36A9E1"/>
<path d="M13.1104 39.9347H12.6428L13.9996 36.2349H14.4624L15.8217 39.9347H15.3516L14.2468 36.8285H14.2177L13.1104 39.9347ZM13.2849 38.4809H15.1796V38.8783H13.2849V38.4809Z" fill="#36A9E1"/>
<path d="M16.4007 39.9347V36.2349H16.8489V39.5373H18.5692V39.9347H16.4007Z" fill="#36A9E1"/>
<path d="M22.7173 37.1603C22.7091 37.0737 22.681 36.9902 22.6352 36.9162C22.5894 36.8422 22.5271 36.7798 22.4532 36.7339C22.2835 36.628 22.0861 36.5749 21.8862 36.5813C21.7393 36.5779 21.5932 36.6051 21.4573 36.6612C21.3442 36.7069 21.2454 36.7822 21.1714 36.8793C21.1042 36.9713 21.0685 37.0827 21.0697 37.1967C21.0698 37.2825 21.0942 37.3664 21.1399 37.439C21.1883 37.5095 21.251 37.569 21.3241 37.6134C21.4005 37.6601 21.4817 37.6982 21.5664 37.7273C21.6488 37.7564 21.7239 37.7806 21.7917 37.8L22.1673 37.8993C22.2642 37.926 22.3708 37.9599 22.4895 38.0035C22.6101 38.0505 22.7247 38.1115 22.8311 38.1852C22.9412 38.2638 23.0337 38.3645 23.1025 38.4808C23.1771 38.6147 23.214 38.7662 23.2091 38.9194C23.2107 39.1118 23.1559 39.3004 23.0516 39.4621C22.9391 39.6303 22.7811 39.763 22.5961 39.8449C22.3678 39.9472 22.1192 39.9961 21.8692 39.9879C21.6334 39.9944 21.3988 39.9506 21.1811 39.8595C20.9999 39.784 20.8426 39.6609 20.7256 39.5033C20.615 39.3465 20.5504 39.1619 20.5391 38.9703H21.0018C21.0087 39.0975 21.0582 39.2187 21.1424 39.3143C21.2281 39.4081 21.3366 39.4782 21.4573 39.5178C21.5901 39.5623 21.7293 39.5844 21.8692 39.5833C22.0266 39.586 22.183 39.558 22.3296 39.5009C22.4565 39.4499 22.5677 39.3664 22.6518 39.2586C22.7319 39.1582 22.7748 39.0332 22.773 38.9048C22.7771 38.7952 22.7399 38.688 22.6688 38.6044C22.5944 38.5216 22.5014 38.4577 22.3974 38.4178C22.2794 38.3666 22.158 38.3237 22.034 38.2894L21.5785 38.161C21.3262 38.095 21.0919 37.9733 20.8928 37.8048C20.8115 37.7271 20.7478 37.6327 20.706 37.5282C20.6642 37.4238 20.6453 37.3115 20.6505 37.1991C20.6463 37.0049 20.7049 36.8145 20.8177 36.6564C20.9353 36.4983 21.0924 36.3738 21.2732 36.2954C21.4753 36.2059 21.6943 36.1612 21.9153 36.1645C22.1337 36.1608 22.3503 36.2046 22.5501 36.2929C22.7249 36.3689 22.8775 36.4881 22.9935 36.6394C23.1009 36.785 23.161 36.9601 23.1655 37.141L22.7173 37.1603Z" fill="#36A9E1"/>
<path d="M24.3866 36.2349V39.9347H23.9384V36.2349H24.3866Z" fill="#36A9E1"/>
<path d="M27.8127 37.3906C27.7721 37.2771 27.7167 37.1696 27.6479 37.0707C27.5858 36.9772 27.5079 36.8953 27.4177 36.8284C27.3283 36.7576 27.2264 36.7042 27.1173 36.671C26.9982 36.6331 26.8739 36.6143 26.749 36.6152C26.5375 36.6139 26.3299 36.6728 26.1505 36.7848C25.9631 36.9076 25.8151 37.0817 25.7241 37.2864C25.5108 37.8065 25.5108 38.3896 25.7241 38.9097C25.8188 39.1143 25.9702 39.2876 26.1602 39.4088C26.346 39.5227 26.5602 39.5815 26.7781 39.5785C26.9741 39.5833 27.168 39.5366 27.3402 39.4428C27.501 39.3527 27.6322 39.2181 27.7182 39.0551C27.8139 38.8739 27.8615 38.6712 27.8563 38.4663L27.992 38.4954H26.8798V38.098H28.29V38.4954C28.2968 38.7731 28.229 39.0475 28.0937 39.2901C27.9688 39.5113 27.7841 39.6927 27.5607 39.8135C27.3195 39.9398 27.0503 40.0031 26.7781 39.9976C26.4745 40.0049 26.1751 39.925 25.9155 39.7674C25.6633 39.6079 25.4622 39.3791 25.3364 39.1084C25.1917 38.7917 25.1213 38.4461 25.1305 38.098C25.1261 37.83 25.1662 37.5631 25.2492 37.3082C25.3202 37.0879 25.4338 36.8837 25.5836 36.7073C25.7247 36.5448 25.9001 36.4157 26.0972 36.3293C26.3024 36.2386 26.5247 36.1931 26.749 36.1961C26.9351 36.1945 27.1202 36.224 27.2966 36.2833C27.46 36.3383 27.6131 36.4202 27.7497 36.5256C27.8828 36.6316 27.996 36.7604 28.084 36.906C28.173 37.0556 28.2353 37.2196 28.2682 37.3906H27.8127Z" fill="#36A9E1"/>
<path d="M32.0091 36.2349V39.9347H31.5754L29.5596 37.0272H29.5232V39.9347H29.075V36.2349H29.5087L31.5318 39.1424H31.5682V36.2349H32.0091Z" fill="#36A9E1"/>
<path d="M33.0437 39.9347H32.5737L33.9329 36.2349H34.3957L35.755 39.9347H35.2849L34.1898 36.8285H34.1607L33.0437 39.9347ZM33.2182 38.4809H35.1105V38.8783H33.2206L33.2182 38.4809Z" fill="#36A9E1"/>
<path d="M36.334 39.9347V36.2349H36.7823V39.5373H38.5001V39.9347H36.334Z" fill="#36A9E1"/>
<path d="M40.3827 39.9346V36.2348H41.633C41.8807 36.2255 42.1268 36.2797 42.3477 36.3923C42.5246 36.487 42.6676 36.6343 42.7572 36.8139C42.8489 36.9973 42.8954 37.2 42.8929 37.4051C42.8948 37.6113 42.8492 37.8153 42.7596 38.0011C42.6688 38.1803 42.5261 38.3281 42.3501 38.4251C42.1317 38.5398 41.8868 38.595 41.6402 38.585H40.7462V38.1877H41.6281C41.7959 38.1955 41.9629 38.1596 42.1127 38.0835C42.2279 38.0207 42.3203 37.9232 42.3768 37.8048C42.4311 37.679 42.4592 37.5434 42.4592 37.4063C42.4592 37.2692 42.4311 37.1336 42.3768 37.0077C42.3206 36.8896 42.2269 36.7933 42.1103 36.7339C41.9601 36.6592 41.7933 36.6242 41.6257 36.6322H40.8358V39.9346H40.3827Z" fill="#36A9E1"/>
<path d="M46.7356 38.0859C46.7446 38.4345 46.6724 38.7804 46.5248 39.0963C46.3975 39.3659 46.1968 39.5943 45.9458 39.7553C45.6908 39.906 45.4 39.9855 45.1038 39.9855C44.8076 39.9855 44.5168 39.906 44.2618 39.7553C44.0101 39.5945 43.8086 39.3661 43.6803 39.0963C43.5413 38.7772 43.4695 38.4328 43.4695 38.0847C43.4695 37.7366 43.5413 37.3923 43.6803 37.0731C43.8086 36.804 44.0102 36.5764 44.2618 36.4165C44.5163 36.2643 44.8073 36.184 45.1038 36.184C45.4003 36.184 45.6913 36.2643 45.9458 36.4165C46.1967 36.5766 46.3974 36.8042 46.5248 37.0731C46.6721 37.39 46.7442 37.7366 46.7356 38.0859ZM46.3043 38.0859C46.312 37.8066 46.2565 37.5291 46.142 37.2742C46.0492 37.0692 45.8995 36.8951 45.7107 36.7727C45.5278 36.6627 45.3184 36.6046 45.105 36.6046C44.8916 36.6046 44.6822 36.6627 44.4993 36.7727C44.3111 36.8959 44.1616 37.0697 44.068 37.2742C43.8547 37.7944 43.8547 38.3775 44.068 38.8976C44.1609 39.1019 44.3106 39.2751 44.4993 39.3967C44.6822 39.5067 44.8916 39.5649 45.105 39.5649C45.3184 39.5649 45.5278 39.5067 45.7107 39.3967C45.8999 39.2758 46.0498 39.1023 46.142 38.8976C46.2565 38.6427 46.312 38.3653 46.3043 38.0859Z" fill="#36A9E1"/>
<path d="M48.1603 39.9347L47.1475 36.2349H47.603L48.3784 39.249H48.4147L49.2118 36.2349H49.6964L50.496 39.2514H50.5299L51.3052 36.2373H51.7607L50.748 39.9371H50.2852L49.4687 36.9884H49.4396L48.6231 39.9371L48.1603 39.9347Z" fill="#36A9E1"/>
<path d="M52.3156 39.9347V36.2349H54.5423V36.6322H52.7566V37.8824H54.426V38.2822H52.7566V39.5397H54.5713V39.9371L52.3156 39.9347Z" fill="#36A9E1"/>
<path d="M55.3588 39.9346V36.2348H56.609C56.855 36.2252 57.0995 36.2759 57.3213 36.3826C57.4978 36.4708 57.6419 36.6124 57.7332 36.7872C57.8247 36.9672 57.8704 37.1669 57.8665 37.3687C57.8712 37.5706 57.8254 37.7705 57.7332 37.9502C57.6405 38.1213 57.4976 38.26 57.3238 38.3476C57.1025 38.4502 56.8601 38.4992 56.6163 38.4905H55.6035V38.0859H56.6017C56.7678 38.0937 56.9334 38.0638 57.0863 37.9987C57.199 37.9498 57.2921 37.8645 57.3504 37.7564C57.4087 37.6374 57.437 37.506 57.4328 37.3736C57.4362 37.2397 57.4079 37.1069 57.3504 36.9859C57.2925 36.8731 57.1988 36.7828 57.0839 36.7291C56.9316 36.6614 56.7658 36.6299 56.5993 36.637H55.8119V39.9394L55.3588 39.9346ZM57.1009 38.2725L58.0119 39.9346H57.491L56.5945 38.2725H57.1009Z" fill="#36A9E1"/>
<path d="M59.8 36.2349H60.3355L61.5929 39.3071H61.6366L62.894 36.2349H63.4271V39.9347H63.0079V37.1241H62.9716L61.811 39.9347H61.4064L60.2506 37.1241H60.2143V39.9347H59.8V36.2349Z" fill="#36A9E1"/>
<path d="M64.4762 39.9347H64.0062L65.3654 36.2349H65.8282L67.1875 39.9347H66.7174L65.6101 36.8285H65.5811L64.4762 39.9347ZM64.6482 38.4809H66.543V38.8783H64.6482V38.4809Z" fill="#36A9E1"/>
<path d="M70.6983 36.2349V39.9347H70.2646L68.2487 37.0272H68.2124V39.9347H67.7641V36.2349H68.1978L70.2209 39.1424H70.2573V36.2349H70.6983Z" fill="#36A9E1"/>
<path d="M74.0225 36.2349H74.4707V38.6844C74.4753 38.9225 74.4141 39.1573 74.2939 39.3628C74.1729 39.5619 73.9994 39.7238 73.7923 39.8305C73.5551 39.9421 73.2961 40 73.0339 40C72.7718 40 72.5128 39.9421 72.2756 39.8305C72.0685 39.7238 71.895 39.5619 71.774 39.3628C71.653 39.1575 71.591 38.9228 71.5947 38.6844V36.2349H72.043V38.6578C72.0396 38.8269 72.0805 38.994 72.1617 39.1424C72.2416 39.2833 72.3602 39.3985 72.5033 39.4743C72.6693 39.5525 72.8505 39.593 73.0339 39.593C73.2174 39.593 73.3986 39.5525 73.5646 39.4743C73.7077 39.3985 73.8263 39.2833 73.9062 39.1424C73.9865 38.9937 74.0266 38.8267 74.0225 38.6578V36.2349Z" fill="#36A9E1"/>
<path d="M75.3793 39.9347V36.2349H77.5987V36.6322H75.8155V37.8824H77.4194V38.2822H75.8155V39.9371L75.3793 39.9347Z" fill="#36A9E1"/>
<path d="M78.0445 39.9347H77.5745L78.9338 36.2349H79.3965L80.7558 39.9347H80.2857L79.176 36.8285H79.147L78.0445 39.9347ZM78.219 38.4809H80.1113V38.8783H78.219V38.4809Z" fill="#36A9E1"/>
<path d="M84.1358 37.3905H83.6875C83.6635 37.2697 83.6166 37.1546 83.5494 37.0513C83.483 36.9573 83.4011 36.8754 83.3071 36.809C83.2127 36.7422 83.1079 36.6915 82.997 36.6588C82.8822 36.6246 82.763 36.6075 82.6432 36.6079C82.4286 36.6063 82.2179 36.665 82.0351 36.7775C81.8463 36.9 81.6966 37.074 81.6038 37.2791C81.3905 37.7992 81.3905 38.3823 81.6038 38.9024C81.696 39.1072 81.8459 39.2806 82.0351 39.4015C82.2174 39.5151 82.4285 39.574 82.6432 39.5711C82.763 39.5716 82.8822 39.5544 82.997 39.5203C83.1087 39.4896 83.2138 39.4387 83.3071 39.37C83.4022 39.3049 83.4843 39.2228 83.5494 39.1278C83.6171 39.0248 83.664 38.9095 83.6875 38.7885H84.1358C84.1046 38.9676 84.0423 39.1398 83.9516 39.2974C83.8642 39.4434 83.7509 39.5723 83.6173 39.6778C83.484 39.784 83.3331 39.866 83.1714 39.92C83.0011 39.9666 82.8245 39.9862 82.6481 39.9782C82.3515 39.9843 82.0595 39.9043 81.8073 39.748C81.555 39.5879 81.3533 39.3593 81.2258 39.089C81.0868 38.7699 81.015 38.4255 81.015 38.0774C81.015 37.7293 81.0868 37.385 81.2258 37.0659C81.3534 36.7962 81.5551 36.5684 81.8073 36.4092C82.0582 36.2488 82.3503 36.1646 82.6481 36.167C82.8267 36.1652 83.0044 36.193 83.1739 36.2493C83.3359 36.3024 83.487 36.3845 83.6197 36.4916C83.7532 36.5962 83.8666 36.7243 83.954 36.8696C84.0452 37.031 84.1068 37.2074 84.1358 37.3905Z" fill="#36A9E1"/>
<path d="M84.6543 36.6322V36.2349H87.4309V36.6322H86.2655V39.9347H85.8173V36.6322H84.6543Z" fill="#36A9E1"/>
<path d="M90.5516 36.2349H90.9999V38.6844C91.0045 38.9225 90.9433 39.1573 90.823 39.3628C90.7021 39.5619 90.5285 39.7238 90.3215 39.8305C90.0842 39.9421 89.8253 40 89.5631 40C89.3009 40 89.042 39.9421 88.8047 39.8305C88.5977 39.7238 88.4241 39.5619 88.3032 39.3628C88.1822 39.1575 88.1201 38.9228 88.1239 38.6844V36.2349H88.5721V38.6578C88.5687 38.8269 88.6097 38.994 88.6908 39.1424C88.7708 39.2833 88.8893 39.3985 89.0325 39.4743C89.1985 39.5525 89.3796 39.593 89.5631 39.593C89.7466 39.593 89.9277 39.5525 90.0937 39.4743C90.2369 39.3985 90.3554 39.2833 90.4353 39.1424C90.5157 38.9937 90.5558 38.8267 90.5516 38.6578V36.2349Z" fill="#36A9E1"/>
<path d="M91.8964 39.9346V36.2348H93.1466C93.3926 36.225 93.6372 36.2758 93.8589 36.3826C94.0354 36.4708 94.1795 36.6124 94.2708 36.7873C94.3623 36.9672 94.408 37.1669 94.4041 37.3688C94.4088 37.5707 94.363 37.7706 94.2708 37.9503C94.178 38.1214 94.0352 38.26 93.8614 38.3476C93.64 38.4503 93.3976 38.4992 93.1539 38.4906H92.1435V38.086H93.1393C93.3054 38.094 93.4711 38.0641 93.6239 37.9987C93.7366 37.9499 93.8296 37.8645 93.888 37.7564C93.9463 37.6375 93.9746 37.506 93.9704 37.3736C93.9737 37.2397 93.9455 37.1069 93.888 36.9859C93.8309 36.8726 93.7369 36.782 93.6215 36.7291C93.4692 36.6615 93.3034 36.63 93.1369 36.637H92.3398V39.9395L91.8964 39.9346ZM93.6384 38.2725L94.5495 39.9346H94.0358L93.1393 38.2725H93.6384Z" fill="#36A9E1"/>
<path d="M95.5986 36.2349V39.9347H95.1503V36.2349H95.5986Z" fill="#36A9E1"/>
<path d="M99.4268 36.2349V39.9347H98.9931L96.9772 37.0272H96.9433V39.9347H96.4951V36.2349H96.9288L98.9543 39.1424H98.9882V36.2349H99.4268Z" fill="#36A9E1"/>
<path d="M102.853 37.3905C102.816 37.2751 102.764 37.1651 102.698 37.0634C102.631 36.9696 102.549 36.8877 102.455 36.8211C102.366 36.7508 102.264 36.6974 102.155 36.6636C102.036 36.6258 101.912 36.607 101.787 36.6079C101.575 36.6062 101.367 36.6651 101.188 36.7775C101.001 36.9008 100.852 37.0747 100.759 37.2791C100.648 37.5347 100.594 37.8119 100.602 38.0907C100.594 38.3699 100.648 38.6473 100.762 38.9024C100.853 39.105 101.001 39.2764 101.188 39.3953C101.376 39.5142 101.594 39.5753 101.816 39.5711C102.011 39.5757 102.204 39.5289 102.375 39.4355C102.537 39.3451 102.669 39.2106 102.756 39.0478C102.85 38.8661 102.897 38.6636 102.892 38.459L103.03 38.4881H101.918V38.0907H103.325V38.4881C103.332 38.7654 103.265 39.0396 103.131 39.2828C103.006 39.5046 102.821 39.6861 102.596 39.8062C102.356 39.9328 102.087 39.9962 101.816 39.9903C101.512 39.9978 101.213 39.9179 100.953 39.7601C100.701 39.6006 100.5 39.3718 100.374 39.1011C100.229 38.7844 100.159 38.4388 100.168 38.0907C100.164 37.8229 100.204 37.5562 100.284 37.3009C100.356 37.0804 100.471 36.8763 100.621 36.7C100.762 36.5375 100.938 36.4084 101.135 36.322C101.34 36.231 101.562 36.1856 101.787 36.1888C101.972 36.1872 102.156 36.2167 102.332 36.276C102.496 36.331 102.65 36.4129 102.787 36.5183C102.919 36.625 103.031 36.7537 103.119 36.8987C103.209 37.0479 103.272 37.212 103.303 37.3833L102.853 37.3905Z" fill="#36A9E1"/>
<path fill-rule="evenodd" clip-rule="evenodd" d="M41.0078 7.74137H54.4453C55.0475 7.74137 55.5357 8.22952 55.5357 8.83168C55.5357 9.43385 55.0475 9.92199 54.4453 9.92199H41.0029L41.0003 9.92198C40.7279 9.92071 40.4575 9.96778 40.2016 10.061C39.3376 10.3811 37.988 11.1157 37.4825 12.6356L37.4815 12.6387L37.4805 12.6418C37.4056 12.8626 36.9699 14.2896 37.7204 15.638C38.4564 16.9603 40.1785 17.8097 42.1047 17.5359C42.7008 17.4512 43.2528 17.8658 43.3375 18.462C43.4223 19.0582 43.0076 19.6102 42.4115 19.6949C39.7341 20.0754 37.0561 18.9282 35.8151 16.6985C34.5922 14.5016 35.297 12.2913 35.4143 11.9445C36.237 9.47498 38.3732 8.41242 39.4471 8.01507L39.4492 8.01429L39.4513 8.01353C39.9499 7.83135 40.477 7.7392 41.0078 7.74137Z" fill="#1D1D1B"/>
<path fill-rule="evenodd" clip-rule="evenodd" d="M72.1569 10.0036C71.9945 9.94914 71.8242 9.92157 71.6529 9.92196L71.6505 9.92196H58.0821C57.48 9.92196 56.9918 9.43382 56.9918 8.83165C56.9918 8.22949 57.48 7.74134 58.0821 7.74134H71.6493C72.0572 7.74056 72.4626 7.80624 72.8494 7.93581C73.862 8.27433 76.2292 9.31155 77.1068 11.9471L77.1075 11.9495C77.2151 12.2748 77.9322 14.494 76.7051 16.6985C75.4768 18.9054 72.862 20.0422 70.2273 19.7105H60.287V28.5203C60.287 29.1224 59.7988 29.6106 59.1967 29.6106C58.5945 29.6106 58.1064 29.1224 58.1064 28.5203V19.2308C58.1064 18.7797 58.2856 18.3471 58.6045 18.0281C58.9235 17.7091 59.3562 17.5299 59.8073 17.5299H70.3726L70.4461 17.54C72.3601 17.8015 74.063 16.9617 74.7998 15.638C75.5483 14.2932 75.1154 12.8713 75.0375 12.6351C74.4951 11.0074 72.9865 10.2808 72.1577 10.0038L72.1569 10.0036Z" fill="#1D1D1B"/>
<path fill-rule="evenodd" clip-rule="evenodd" d="M48.2298 17.6425C50.9072 17.262 53.5851 18.4092 54.8262 20.6388C56.0493 22.8363 55.344 25.047 55.2269 25.3931C54.6549 27.1079 53.4453 28.147 52.419 28.746C51.3974 29.3422 50.4876 29.5457 50.3535 29.5734L50.2442 29.596H36.1959C35.5938 29.596 35.1056 29.1079 35.1056 28.5057C35.1056 27.9036 35.5938 27.4154 36.1959 27.4154H50.0042C50.0786 27.3958 50.1945 27.3626 50.3396 27.3124C50.6036 27.2209 50.9528 27.0768 51.3199 26.8626C52.0576 26.4321 52.8075 25.7566 53.1589 24.7013L53.1599 24.6984L53.1608 24.6956C53.2357 24.4748 53.6714 23.0478 52.9209 21.6994C52.1848 20.3771 50.4628 19.5277 48.5366 19.8014C47.9404 19.8862 47.3885 19.4715 47.3037 18.8754C47.219 18.2792 47.6336 17.7272 48.2298 17.6425Z" fill="#1D1D1B"/>
<path fill-rule="evenodd" clip-rule="evenodd" d="M80.3948 7.8407C80.9969 7.8407 81.4851 8.32885 81.4851 8.93101V28.5057C81.4851 29.1079 80.9969 29.5961 80.3948 29.5961C79.7926 29.5961 79.3045 29.1079 79.3045 28.5057V8.93101C79.3045 8.32885 79.7926 7.8407 80.3948 7.8407Z" fill="#1D1D1B"/>
<path fill-rule="evenodd" clip-rule="evenodd" d="M79.6089 8.07589C80.0263 7.64186 80.7165 7.62837 81.1505 8.04576L91.5763 18.0718C92.0104 18.4892 92.0239 19.1794 91.6065 19.6134C91.1891 20.0475 90.4989 20.061 90.0648 19.6436L79.639 9.61753C79.205 9.20014 79.1915 8.50993 79.6089 8.07589Z" fill="#1D1D1B"/>
<path fill-rule="evenodd" clip-rule="evenodd" d="M101.314 7.8407C101.916 7.8407 102.405 8.32885 102.405 8.93101V28.5057C102.405 29.1079 101.916 29.5961 101.314 29.5961C100.712 29.5961 100.224 29.1079 100.224 28.5057V8.93101C100.224 8.32885 100.712 7.8407 101.314 7.8407Z" fill="#1D1D1B"/>
<path fill-rule="evenodd" clip-rule="evenodd" d="M102.1 8.07589C102.518 8.50993 102.504 9.20014 102.07 9.61753L91.6442 19.6436C91.2102 20.061 90.5199 20.0475 90.1025 19.6134C89.6852 19.1794 89.6986 18.4892 90.1327 18.0718L100.558 8.04576C100.993 7.62837 101.683 7.64186 102.1 8.07589Z" fill="#1D1D1B"/>
<path fill-rule="evenodd" clip-rule="evenodd" d="M12.936 7.46254C12.4088 8.05452 12.2512 8.84834 12.2163 9.47525V18.1526H1.72269V7.14046H3.66102V16.2143H10.278V9.42479L10.2793 9.40011C10.3197 8.60707 10.5181 7.25885 11.4938 6.16743L11.4967 6.16418L11.4996 6.16096C12.2708 5.31374 13.251 4.92034 14.1264 4.73395C14.981 4.55196 15.8054 4.55391 16.3327 4.55515L16.3547 4.5552H16.3557C19.7162 4.5552 23.8901 4.5552 28.8209 4.60614L28.8009 6.54437C23.8806 6.49354 19.7152 6.49354 16.3547 6.49354L16.3525 6.49353C15.8125 6.49231 15.1699 6.49353 14.5301 6.62977C13.8992 6.7641 13.3444 7.01552 12.936 7.46254Z" fill="#3C82CF"/>
<path d="M7.13548 0.339281C5.23349 2.36242 3.90331 4.80472 3.66102 7.14041C3.64406 10.0213 3.46718 12.9409 2.69185 15.7321C2.31013 14.3255 2.05311 12.888 1.92379 11.4362C1.78372 9.98678 1.7166 8.53119 1.72268 7.07499C2.03524 4.0415 4.18679 1.18488 7.14517 0.32959L7.13548 0.339281Z" fill="#3C82CF"/>
<path fill-rule="evenodd" clip-rule="evenodd" d="M20.5132 1.94935C17.8247 1.9283 15.8237 1.91264 13.9714 2.17143L13.9576 2.17336L13.9437 2.17489C12.5824 2.32529 11.2895 2.84992 10.2084 3.69046L10.1976 3.69935C10.1843 3.7104 10.1651 3.72637 10.1423 3.74555C10.098 3.78279 10.0428 3.82978 9.99109 3.87523C9.30214 4.5094 8.7537 5.28094 8.38117 6.14011C8.00737 7.00221 7.81904 7.93328 7.82841 8.87288L7.82845 8.87771V13.7284H5.89012V8.88722C5.87876 7.67755 6.12156 6.47896 6.6028 5.36904C7.08471 4.2576 7.79495 3.25992 8.68743 2.44076L8.69443 2.43433L8.70155 2.42805C8.77145 2.36638 8.84277 2.30576 8.89517 2.26172C8.92172 2.2394 8.94418 2.2207 8.96017 2.20744L8.97914 2.19174L8.98681 2.18542C8.98682 2.18541 8.98687 2.18537 9.60203 2.93428L8.98681 2.18542L8.99626 2.17766L9.00584 2.17019C10.3686 1.10691 11.9993 0.442229 13.7168 0.249844C15.717 -0.0281702 17.8731 -0.0106831 20.5291 0.0108583C20.9105 0.0139521 21.3023 0.0171296 21.7054 0.0195273C22.8022 0.0260512 23.6716 0.0234012 24.5688 0.0206664C26.3128 0.0153506 28.1619 0.00971459 31.9906 0.0705138L32.9444 0.0856594V10.581H20.5439V8.64267H31.0061V1.99422C27.8294 1.94901 26.179 1.95412 24.5978 1.95901C23.6971 1.9618 22.8189 1.96452 21.6939 1.95783C21.2856 1.9554 20.8926 1.95232 20.5132 1.94935Z" fill="#3C82CF"/>
<path d="M20.5948 8.64506V10.5834H15.1481V9.74749C15.1481 9.6019 15.1769 9.45775 15.2329 9.32336C15.2889 9.18897 15.371 9.06701 15.4744 8.96451C15.5778 8.86201 15.7005 8.78101 15.8353 8.72618C15.9702 8.67135 16.1146 8.64378 16.2602 8.64506H20.5948Z" fill="#3C82CF"/>
<path fill-rule="evenodd" clip-rule="evenodd" d="M22.4483 12.781H32.942V23.7932H31.0036V14.7193H24.3867V21.5282L24.3854 21.5529C24.3451 22.3436 24.1498 23.6947 23.1689 24.7853L23.1676 24.7868L23.1663 24.7882C22.396 25.6378 21.4156 26.0314 20.5401 26.2178C19.6936 26.3981 18.8755 26.3979 18.3486 26.3978C18.3355 26.3978 18.3227 26.3978 18.31 26.3978H18.3085C14.9481 26.3978 10.7768 26.3978 5.84377 26.3469L5.86378 24.4086C10.7865 24.4595 14.9495 24.4595 18.31 24.4595C18.8535 24.4595 19.4962 24.4583 20.1364 24.322C20.7678 24.1876 21.3218 23.936 21.7289 23.4878C22.2571 22.8996 22.4134 22.1075 22.4483 21.4778V12.781Z" fill="#3C82CF"/>
<path d="M27.5219 30.5943C29.4215 28.5712 30.7444 26.1289 31.006 23.7932C31.023 20.9123 31.1999 17.9927 31.9752 15.1991C32.3559 16.6064 32.6105 18.0449 32.736 19.4973C32.8761 20.9468 32.9433 22.4024 32.9371 23.8586C32.6246 26.8921 30.473 29.7463 27.517 30.604L27.5219 30.5943Z" fill="#3C82CF"/>
<path fill-rule="evenodd" clip-rule="evenodd" d="M26.8265 17.2029H28.7648V22.044C28.7761 23.254 28.5333 24.4528 28.0521 25.5631C27.5702 26.6749 26.8602 27.6729 25.9678 28.4926L25.9607 28.4992L25.9534 28.5056C25.8835 28.5673 25.8122 28.6279 25.7598 28.672C25.7332 28.6943 25.7108 28.713 25.6948 28.7262L25.6758 28.7419L25.6705 28.7464L25.6689 28.7476L25.6684 28.7481L25.6682 28.7483C25.6681 28.7483 25.6681 28.7483 25.0529 27.9994L25.6682 28.7483L25.6592 28.7556L25.65 28.7628C24.2887 29.8276 22.6585 30.4934 20.9412 30.6862C18.9573 30.964 16.8192 30.9476 14.1946 30.9275C13.7924 30.9244 13.3789 30.9212 12.9527 30.919C11.8844 30.9134 11.0328 30.9158 10.162 30.9182C8.39688 30.923 6.55315 30.9281 2.66717 30.868L1.71298 30.8533V20.3527H14.111V22.291H3.65132V28.9439C6.87927 28.9889 8.53287 28.9843 10.1374 28.9798C11.0116 28.9774 11.8711 28.975 12.9628 28.9807C13.3976 28.983 13.8152 28.986 14.2172 28.989C16.8698 29.0086 18.85 29.0232 20.685 28.7648L20.6992 28.7628L20.7135 28.7612C22.0743 28.6106 23.3664 28.0852 24.4461 27.2436L24.4573 27.2343C24.4706 27.2233 24.4898 27.2073 24.5126 27.1881C24.5569 27.1509 24.6121 27.104 24.6637 27.0586C25.3526 26.4239 25.9011 25.6519 26.2736 24.7923C26.6474 23.9298 26.8358 22.9983 26.8266 22.0583L26.8265 22.0535V17.2029Z" fill="#3C82CF"/>
<path d="M14.0602 22.291V20.3527H19.5069V21.1886C19.5069 21.3333 19.4784 21.4767 19.423 21.6104C19.3676 21.7442 19.2864 21.8657 19.184 21.9681C19.0816 22.0705 18.9601 22.1517 18.8264 22.2071C18.6926 22.2625 18.5493 22.291 18.4045 22.291H14.0602Z" fill="#3C82CF"/>
</svg>

