<svg width="156" height="61" viewBox="0 0 156 61" fill="none" xmlns="http://www.w3.org/2000/svg">
<path d="M2.28647 60.5361H0.571045V54.9864H2.36279C2.8447 54.9729 3.32148 55.0884 3.74385 55.3208C4.12622 55.5407 4.43289 55.8715 4.62337 56.2693C4.84095 56.7326 4.94676 57.2405 4.93229 57.7522C4.94483 58.266 4.83914 58.7758 4.62337 59.2423C4.42895 59.6473 4.11416 59.9824 3.72205 60.2017C3.28119 60.4373 2.78606 60.5527 2.28647 60.5361ZM1.2434 59.9401H2.24286C2.64015 59.9554 3.03426 59.8638 3.38405 59.6748C3.68391 59.502 3.91978 59.2368 4.05641 58.9188C4.35453 58.1721 4.35453 57.3395 4.05641 56.5928C3.92174 56.2811 3.69301 56.0194 3.40222 55.8441C3.06954 55.6589 2.69244 55.5684 2.31191 55.5824H1.2216L1.2434 59.9401Z" fill="#D1EEFF"/>
<path d="M6.73122 54.9865V60.5361H6.0625V54.9865H6.73122Z" fill="#D1EEFF"/>
<path d="M11.8776 56.72C11.821 56.5467 11.7416 56.3817 11.6413 56.2294C11.5427 56.0876 11.4197 55.9645 11.2779 55.866C11.1438 55.7597 10.9909 55.6796 10.8272 55.6297C10.6487 55.5729 10.4622 55.5447 10.2748 55.5461C9.95753 55.5442 9.64623 55.6324 9.37712 55.8005C9.09603 55.9846 8.87396 56.2458 8.73747 56.5528C8.41757 57.333 8.41757 58.2077 8.73747 58.9879C8.8783 59.2956 9.10559 59.5557 9.39166 59.7366C9.67027 59.9074 9.99165 59.9956 10.3184 59.991C10.6125 59.9983 10.9033 59.9281 11.1616 59.7874C11.402 59.6514 11.5987 59.4497 11.7286 59.2059C11.8722 58.9342 11.9436 58.6301 11.9357 58.3228L12.1392 58.3664H10.4711V57.7704H12.6044V58.3664C12.6147 58.7829 12.513 59.1946 12.3101 59.5585C12.1227 59.8902 11.8456 60.1623 11.5105 60.3435C11.1487 60.533 10.7449 60.628 10.3366 60.6197C9.88119 60.6306 9.43219 60.5108 9.04276 60.2744C8.66437 60.0351 8.36283 59.6919 8.17414 59.2859C7.95703 58.8109 7.85137 58.2925 7.86522 57.7704C7.85863 57.3683 7.9188 56.9679 8.0433 56.5856C8.1483 56.2545 8.31888 55.948 8.54485 55.6842C8.75655 55.4405 9.01971 55.2469 9.31533 55.1173C9.62295 54.9808 9.95649 54.9126 10.293 54.9174C10.5721 54.915 10.8497 54.9593 11.1144 55.0482C11.3595 55.1308 11.5892 55.2536 11.794 55.4117C11.9935 55.5698 12.1623 55.7632 12.2919 55.9822C12.428 56.2058 12.5228 56.452 12.5717 56.7091L11.8776 56.72Z" fill="#D1EEFF"/>
<path d="M14.4216 54.9865V60.5361H13.7493V54.9865H14.4216Z" fill="#D1EEFF"/>
<path d="M15.4575 55.5825V54.9865H19.6189V55.5825H17.8744V60.5361H17.202V55.5825H15.4575Z" fill="#D1EEFF"/>
<path d="M20.2366 60.5361H19.5352L21.5704 54.9865H22.2646L24.3035 60.5361H23.5984L21.9411 55.8769H21.8975L20.2366 60.5361ZM20.4983 58.3555H23.3403V58.9516H20.4983V58.3555Z" fill="#D1EEFF"/>
<path d="M25.1721 60.5361V54.9865H25.8445V59.9401H28.4249V60.5361H25.1721Z" fill="#D1EEFF"/>
<path d="M34.6469 56.3747C34.6347 56.2447 34.5925 56.1194 34.5238 56.0084C34.4551 55.8975 34.3617 55.8039 34.2508 55.735C33.9962 55.5762 33.7002 55.4965 33.4003 55.5061C33.1799 55.5009 32.9608 55.5418 32.7571 55.626C32.5873 55.6945 32.4391 55.8075 32.3282 55.9531C32.2273 56.0912 32.1737 56.2582 32.1756 56.4292C32.1758 56.5578 32.2123 56.6838 32.281 56.7926C32.3534 56.8984 32.4476 56.9876 32.5572 57.0543C32.6718 57.1242 32.7936 57.1815 32.9206 57.2251C33.0442 57.2687 33.1568 57.3051 33.2586 57.3341L33.8219 57.4832C33.9673 57.5231 34.1272 57.574 34.3053 57.6394C34.4862 57.71 34.6582 57.8015 34.8178 57.912C34.9829 58.0298 35.1215 58.1808 35.2248 58.3554C35.3367 58.5561 35.392 58.7835 35.3847 59.0132C35.3871 59.3018 35.305 59.5848 35.1485 59.8273C34.9797 60.0796 34.7427 60.2787 34.4652 60.4016C34.1228 60.555 33.7499 60.6283 33.3749 60.616C33.0211 60.6258 32.6692 60.5601 32.3427 60.4234C32.071 60.3102 31.8349 60.1256 31.6595 59.8891C31.4935 59.6539 31.3966 59.3769 31.3796 59.0895H32.0738C32.0841 59.2804 32.1583 59.4622 32.2846 59.6056C32.4132 59.7463 32.5759 59.8515 32.7571 59.9109C32.9562 59.9776 33.1649 60.0107 33.3749 60.009C33.6109 60.0131 33.8455 59.9711 34.0654 59.8855C34.2558 59.8091 34.4226 59.6837 34.5488 59.522C34.669 59.3715 34.7332 59.184 34.7305 58.9914C34.7367 58.8269 34.6809 58.6661 34.5743 58.5408C34.4627 58.4165 34.3231 58.3206 34.1672 58.2609C33.9902 58.1841 33.808 58.1198 33.622 58.0683L32.9388 57.8757C32.5603 57.7767 32.2089 57.5941 31.9103 57.3414C31.7883 57.2247 31.6927 57.0833 31.63 56.9265C31.5673 56.7698 31.539 56.6014 31.5468 56.4328C31.5405 56.1415 31.6285 55.856 31.7976 55.6187C31.9741 55.3816 32.2097 55.1948 32.4809 55.0772C32.7839 54.9429 33.1125 54.876 33.444 54.8809C33.7716 54.8754 34.0965 54.9411 34.3962 55.0736C34.6584 55.1875 34.8873 55.3663 35.0613 55.5933C35.2224 55.8116 35.3125 56.0743 35.3193 56.3456L34.6469 56.3747Z" fill="#D1EEFF"/>
<path d="M37.151 54.9865V60.5361H36.4786V54.9865H37.151Z" fill="#D1EEFF"/>
<path d="M42.29 56.72C42.2291 56.5499 42.146 56.3886 42.0428 56.2403C41.9496 56.1 41.8328 55.9771 41.6976 55.8768C41.5635 55.7705 41.4106 55.6904 41.2469 55.6406C41.0683 55.5838 40.8819 55.5556 40.6945 55.557C40.3772 55.5551 40.0659 55.6433 39.7968 55.8114C39.5157 55.9955 39.2936 56.2567 39.1571 56.5637C38.8372 57.3439 38.8372 58.2186 39.1571 58.9987C39.2992 59.3057 39.5262 59.5655 39.8113 59.7474C40.0899 59.9182 40.4113 60.0065 40.7381 60.0018C41.0321 60.0092 41.3229 59.939 41.5813 59.7983C41.8224 59.6632 42.0193 59.4613 42.1482 59.2168C42.2919 58.9451 42.3632 58.6409 42.3554 58.3336L42.5589 58.3773H40.8907V57.7812H43.0059V58.3773C43.0162 58.7938 42.9145 59.2055 42.7115 59.5693C42.5242 59.901 42.2471 60.1731 41.912 60.3544C41.5502 60.5439 41.1464 60.6389 40.7381 60.6306C40.2827 60.6415 39.8337 60.5216 39.4442 60.2853C39.0659 60.046 38.7643 59.7028 38.5756 59.2968C38.3585 58.8217 38.2529 58.3033 38.2667 57.7812C38.2601 57.3792 38.3203 56.9788 38.4448 56.5964C38.5512 56.266 38.7216 55.9597 38.9463 55.6951C39.158 55.4514 39.4212 55.2578 39.7168 55.1281C40.0246 54.992 40.358 54.9238 40.6945 54.9282C40.9736 54.9259 41.2512 54.9701 41.5158 55.0591C41.761 55.1417 41.9907 55.2645 42.1955 55.4225C42.3951 55.5815 42.5649 55.7747 42.697 55.9931C42.8304 56.2176 42.9239 56.4635 42.9732 56.72H42.29Z" fill="#D1EEFF"/>
<path d="M48.5847 54.9865V60.5361H47.9341L44.9103 56.1749H44.8558V60.5361H44.1835V54.9865H44.834L47.8687 59.3477H47.9232V54.9865H48.5847Z" fill="#D1EEFF"/>
<path d="M50.1366 60.5361H49.4315L51.4704 54.9865H52.1646L54.2035 60.5361H53.4984L51.8556 55.8769H51.812L50.1366 60.5361ZM50.3983 58.3555H53.2367V58.9516H50.4019L50.3983 58.3555Z" fill="#D1EEFF"/>
<path d="M55.0721 60.5361V54.9865H55.7445V59.9401H58.3213V60.5361H55.0721Z" fill="#D1EEFF"/>
<path d="M61.1451 60.5361V54.9864H63.0205C63.3922 54.9725 63.7612 55.0538 64.0926 55.2227C64.3579 55.3648 64.5725 55.5858 64.7068 55.8551C64.8444 56.1302 64.9142 56.4342 64.9104 56.7418C64.9132 57.0512 64.8448 57.3571 64.7105 57.6359C64.5742 57.9048 64.3602 58.1264 64.0963 58.2719C63.7685 58.444 63.4012 58.5267 63.0314 58.5118H61.6903V57.9157H63.0132C63.265 57.9275 63.5154 57.8737 63.7401 57.7595C63.9129 57.6653 64.0515 57.5191 64.1362 57.3415C64.2177 57.1527 64.2598 56.9493 64.2598 56.7437C64.2598 56.538 64.2177 56.3346 64.1362 56.1458C64.0519 55.9686 63.9113 55.8242 63.7365 55.7351C63.5111 55.6231 63.2609 55.5705 63.0096 55.5825H61.8248V60.5361H61.1451Z" fill="#D1EEFF"/>
<path d="M70.6745 57.763C70.6879 58.2859 70.5797 58.8047 70.3583 59.2786C70.1672 59.6831 69.8662 60.0256 69.4897 60.2671C69.1072 60.4932 68.671 60.6124 68.2267 60.6124C67.7824 60.6124 67.3463 60.4932 66.9638 60.2671C66.5862 60.0258 66.2839 59.6833 66.0915 59.2786C65.8829 58.7999 65.7753 58.2834 65.7753 57.7612C65.7753 57.2391 65.8829 56.7225 66.0915 56.2439C66.284 55.8401 66.5863 55.4988 66.9638 55.259C67.3455 55.0307 67.782 54.9101 68.2267 54.9101C68.6715 54.9101 69.108 55.0307 69.4897 55.259C69.8661 55.499 70.1672 55.8404 70.3583 56.2439C70.5792 56.7192 70.6874 57.2391 70.6745 57.763ZM70.0276 57.763C70.0391 57.344 69.9558 56.9279 69.7841 56.5455C69.6449 56.238 69.4204 55.9769 69.1371 55.7932C68.8628 55.6282 68.5487 55.541 68.2285 55.541C67.9084 55.541 67.5943 55.6282 67.32 55.7932C67.0377 55.9779 66.8134 56.2387 66.673 56.5455C66.3531 57.3257 66.3531 58.2004 66.673 58.9806C66.8124 59.287 67.037 59.5469 67.32 59.7292C67.5943 59.8943 67.9084 59.9815 68.2285 59.9815C68.5487 59.9815 68.8628 59.8943 69.1371 59.7292C69.4209 59.5478 69.6457 59.2877 69.7841 58.9806C69.9558 58.5982 70.0391 58.182 70.0276 57.763Z" fill="#D1EEFF"/>
<path d="M72.8115 60.5361L71.2924 54.9865H71.9756L73.1386 59.5076H73.1931L74.3888 54.9865H75.1157L76.3151 59.5112H76.3659L77.5289 54.9901H78.2122L76.693 60.5398H75.9989L74.7741 56.1167H74.7305L73.5057 60.5398L72.8115 60.5361Z" fill="#D1EEFF"/>
<path d="M79.0444 60.5361V54.9865H82.3844V55.5825H79.7059V57.4578H82.21V58.0575H79.7059V59.9437H82.428V60.5398L79.0444 60.5361Z" fill="#D1EEFF"/>
<path d="M83.6093 60.536V54.9864H85.4846C85.8535 54.9719 86.2204 55.048 86.5531 55.2081C86.8178 55.3403 87.034 55.5527 87.1709 55.815C87.3081 56.085 87.3767 56.3845 87.3708 56.6872C87.378 56.9901 87.3092 57.29 87.1709 57.5595C87.0318 57.8161 86.8174 58.0241 86.5567 58.1555C86.2248 58.3095 85.8612 58.383 85.4955 58.37H83.9763V57.763H85.4737C85.7227 57.7746 85.9712 57.7299 86.2006 57.6322C86.3696 57.5589 86.5092 57.4309 86.5967 57.2687C86.6841 57.0903 86.7266 56.8931 86.7203 56.6945C86.7253 56.4937 86.683 56.2944 86.5967 56.113C86.5098 55.9438 86.3692 55.8083 86.1969 55.7278C85.9685 55.6263 85.7197 55.579 85.4701 55.5897H84.2889V60.5433L83.6093 60.536ZM86.2224 58.0429L87.5889 60.536H86.8075L85.4628 58.0429H86.2224Z" fill="#D1EEFF"/>
<path d="M90.271 54.9865H91.0742L92.9604 59.5948H93.0258L94.9121 54.9865H95.7117V60.5361H95.0829V56.3203H95.0284L93.2875 60.5361H92.6806L90.947 56.3203H90.8925V60.5361H90.271V54.9865Z" fill="#D1EEFF"/>
<path d="M97.2854 60.5361H96.5803L98.6192 54.9865H99.3134L101.352 60.5361H100.647L98.9863 55.8769H98.9427L97.2854 60.5361ZM97.5434 58.3555H100.386V58.9516H97.5434V58.3555Z" fill="#D1EEFF"/>
<path d="M106.618 54.9865V60.5361H105.968L102.944 56.1749H102.89V60.5361H102.217V54.9865H102.868L105.902 59.3477H105.957V54.9865H106.618Z" fill="#D1EEFF"/>
<path d="M111.605 54.9865H112.277V58.6608C112.284 59.018 112.192 59.3701 112.012 59.6784C111.83 59.9771 111.57 60.2198 111.26 60.3799C110.904 60.5473 110.515 60.6342 110.122 60.6342C109.729 60.6342 109.34 60.5473 108.984 60.3799C108.674 60.2198 108.413 59.9771 108.232 59.6784C108.051 59.3704 107.958 59.0183 107.963 58.6608V54.9865H108.635V58.6208C108.63 58.8745 108.692 59.1251 108.814 59.3477C108.933 59.5591 109.111 59.7318 109.326 59.8456C109.575 59.9629 109.847 60.0237 110.122 60.0237C110.397 60.0237 110.669 59.9629 110.918 59.8456C111.133 59.7318 111.31 59.5591 111.43 59.3477C111.551 59.1248 111.611 58.8742 111.605 58.6208V54.9865Z" fill="#D1EEFF"/>
<path d="M113.64 60.5361V54.9865H116.969V55.5825H114.294V57.4578H116.7V58.0575H114.294V60.5398L113.64 60.5361Z" fill="#D1EEFF"/>
<path d="M117.638 60.5361H116.933L118.972 54.9865H119.666L121.705 60.5361H121L119.335 55.8769H119.291L117.638 60.5361ZM117.899 58.3555H120.738V58.9516H117.899V58.3555Z" fill="#D1EEFF"/>
<path d="M126.775 56.72H126.102C126.066 56.5388 125.996 56.3661 125.895 56.2112C125.796 56.0703 125.673 55.9473 125.532 55.8478C125.39 55.7476 125.233 55.6715 125.067 55.6225C124.894 55.5712 124.716 55.5455 124.536 55.5461C124.214 55.5436 123.898 55.6318 123.624 55.8005C123.34 55.9842 123.116 56.2453 122.977 56.5528C122.657 57.333 122.657 58.2077 122.977 58.9879C123.115 59.295 123.34 59.5551 123.624 59.7366C123.897 59.9069 124.214 59.9952 124.536 59.991C124.716 59.9916 124.894 59.9659 125.067 59.9146C125.234 59.8687 125.392 59.7923 125.532 59.6893C125.674 59.5917 125.797 59.4684 125.895 59.3259C125.997 59.1714 126.067 58.9986 126.102 58.8171H126.775C126.728 59.0857 126.634 59.344 126.498 59.5803C126.367 59.7994 126.197 59.9927 125.997 60.1509C125.797 60.3103 125.571 60.4333 125.328 60.5143C125.073 60.5841 124.808 60.6135 124.543 60.6015C124.098 60.6106 123.66 60.4907 123.282 60.2563C122.903 60.0161 122.601 59.6732 122.41 59.2677C122.201 58.7891 122.094 58.2725 122.094 57.7504C122.094 57.2282 122.201 56.7117 122.41 56.233C122.601 55.8285 122.904 55.4869 123.282 55.2481C123.658 55.0075 124.096 54.8812 124.543 54.8847C124.811 54.882 125.078 54.9238 125.332 55.0082C125.575 55.0879 125.801 55.211 126.001 55.3717C126.201 55.5285 126.371 55.7206 126.502 55.9386C126.639 56.1807 126.731 56.4454 126.775 56.72Z" fill="#D1EEFF"/>
<path d="M127.552 55.5825V54.9865H131.717V55.5825H129.969V60.5361H129.297V55.5825H127.552Z" fill="#D1EEFF"/>
<path d="M136.398 54.9865H137.071V58.6608C137.078 59.018 136.986 59.3701 136.806 59.6784C136.624 59.9771 136.364 60.2198 136.053 60.3799C135.697 60.5473 135.309 60.6342 134.916 60.6342C134.522 60.6342 134.134 60.5473 133.778 60.3799C133.468 60.2198 133.207 59.9771 133.026 59.6784C132.844 59.3704 132.751 59.0183 132.757 58.6608V54.9865H133.429V58.6208C133.424 58.8745 133.485 59.1251 133.607 59.3477C133.727 59.5591 133.905 59.7318 134.12 59.8456C134.369 59.9629 134.64 60.0237 134.916 60.0237C135.191 60.0237 135.463 59.9629 135.712 59.8456C135.926 59.7318 136.104 59.5591 136.224 59.3477C136.345 59.1248 136.405 58.8742 136.398 58.6208V54.9865Z" fill="#D1EEFF"/>
<path d="M138.416 60.5361V54.9864H140.291C140.66 54.9717 141.027 55.0478 141.359 55.2081C141.624 55.3404 141.84 55.5528 141.977 55.8151C142.114 56.085 142.183 56.3846 142.177 56.6873C142.184 56.9902 142.116 57.29 141.977 57.5596C141.838 57.8162 141.624 58.0242 141.363 58.1556C141.031 58.3096 140.667 58.383 140.302 58.37H138.786V57.7631H140.28C140.529 57.7751 140.778 57.7303 141.007 57.6322C141.176 57.559 141.315 57.431 141.403 57.2688C141.49 57.0904 141.533 56.8932 141.527 56.6946C141.532 56.4937 141.489 56.2945 141.403 56.1131C141.317 55.943 141.176 55.8072 141.003 55.7278C140.775 55.6264 140.526 55.5791 140.276 55.5897H139.081V60.5434L138.416 60.5361ZM141.029 58.0429L142.395 60.5361H141.625L140.28 58.0429H141.029Z" fill="#D1EEFF"/>
<path d="M143.969 54.9865V60.5361H143.297V54.9865H143.969Z" fill="#D1EEFF"/>
<path d="M149.711 54.9865V60.5361H149.061L146.037 56.1749H145.986V60.5361H145.314V54.9865H145.964L149.002 59.3477H149.053V54.9865H149.711Z" fill="#D1EEFF"/>
<path d="M154.85 56.72C154.795 56.5468 154.717 56.3818 154.618 56.2294C154.518 56.0886 154.395 55.9657 154.254 55.866C154.12 55.7605 153.967 55.6804 153.804 55.6297C153.625 55.5729 153.439 55.5447 153.251 55.5461C152.934 55.5436 152.622 55.6319 152.353 55.8005C152.072 55.9855 151.849 56.2463 151.71 56.5528C151.543 56.9363 151.462 57.3521 151.474 57.7704C151.461 58.1891 151.543 58.6052 151.714 58.9879C151.85 59.2917 152.072 59.5488 152.353 59.7271C152.635 59.9055 152.962 59.9972 153.295 59.991C153.588 59.9978 153.877 59.9277 154.134 59.7874C154.376 59.652 154.574 59.4502 154.705 59.2059C154.846 58.9335 154.916 58.6296 154.908 58.3228L155.116 58.3664H153.447V57.7704H155.559V58.3664C155.569 58.7824 155.468 59.1936 155.268 59.5585C155.08 59.8912 154.802 60.1635 154.465 60.3435C154.105 60.5334 153.702 60.6285 153.295 60.6197C152.839 60.631 152.39 60.5112 152.001 60.2744C151.622 60.0351 151.321 59.6919 151.132 59.2859C150.915 58.8109 150.809 58.2925 150.823 57.7704C150.818 57.3686 150.876 56.9686 150.998 56.5856C151.106 56.2549 151.277 55.9487 151.503 55.6842C151.715 55.4405 151.978 55.2469 152.273 55.1173C152.581 54.9808 152.915 54.9126 153.251 54.9174C153.529 54.915 153.805 54.9593 154.069 55.0482C154.315 55.1307 154.546 55.2535 154.752 55.4117C154.95 55.5718 155.118 55.7648 155.25 55.9822C155.385 56.206 155.478 56.4522 155.526 56.7091L154.85 56.72Z" fill="#D1EEFF"/>
<path fill-rule="evenodd" clip-rule="evenodd" d="M62.0827 12.2461H82.239C83.1423 12.2461 83.8745 12.9783 83.8745 13.8816C83.8745 14.7848 83.1423 15.5171 82.239 15.5171H62.0753L62.0715 15.517C61.6629 15.5151 61.2573 15.5857 60.8735 15.7256C59.5774 16.2057 57.553 17.3076 56.7948 19.5875L56.7933 19.5921L56.7917 19.5967C56.6794 19.9279 56.0259 22.0685 57.1517 24.0911C58.2557 26.0745 60.8388 27.3486 63.728 26.938C64.6223 26.8109 65.4503 27.4328 65.5773 28.3271C65.7044 29.2214 65.0825 30.0493 64.1882 30.1764C60.1722 30.7471 56.1553 29.0264 54.2936 25.6819C52.4593 22.3864 53.5165 19.071 53.6925 18.5509C54.9265 14.8465 58.1308 13.2527 59.7417 12.6567L59.7449 12.6555L59.748 12.6544C60.4959 12.3811 61.2865 12.2429 62.0827 12.2461Z" fill="white"/>
<path fill-rule="evenodd" clip-rule="evenodd" d="M108.806 15.6395C108.563 15.5579 108.307 15.5165 108.051 15.5171L108.047 15.5171H87.6943C86.7911 15.5171 86.0588 14.7849 86.0588 13.8816C86.0588 12.9784 86.7911 12.2462 87.6943 12.2462H108.045C108.657 12.245 109.265 12.3435 109.845 12.5379C111.364 13.0456 114.915 14.6015 116.231 18.5549L116.232 18.5584C116.394 19.0464 117.469 22.3751 115.629 25.6819C113.786 28.9922 109.864 30.6974 105.912 30.2H91.0016V43.4146C91.0016 44.3178 90.2694 45.05 89.3661 45.05C88.4629 45.05 87.7307 44.3178 87.7307 43.4146V29.4804C87.7307 28.8037 87.9995 28.1548 88.4779 27.6763C88.9564 27.1978 89.6053 26.929 90.282 26.929H106.13L106.24 26.9441C109.111 27.3364 111.666 26.0768 112.771 24.0911C113.894 22.074 113.244 19.9412 113.127 19.5868C112.314 17.1452 110.051 16.0554 108.808 15.6399L108.806 15.6395Z" fill="white"/>
<path fill-rule="evenodd" clip-rule="evenodd" d="M72.9158 27.0979C76.9318 26.5272 80.9487 28.2479 82.8104 31.5924C84.645 34.8886 83.5871 38.2047 83.4114 38.7238C82.5533 41.296 80.739 42.8547 79.1996 43.7531C77.6671 44.6474 76.3024 44.9526 76.1012 44.9943L75.9373 45.0282H54.865C53.9617 45.0282 53.2295 44.296 53.2295 43.3927C53.2295 42.4895 53.9617 41.7573 54.865 41.7573H75.5773C75.6889 41.7279 75.8628 41.6781 76.0805 41.6027C76.4764 41.4656 77.0003 41.2494 77.5509 40.928C78.6574 40.2823 79.7822 39.269 80.3094 37.6861L80.3108 37.6818L80.3123 37.6776C80.4246 37.3464 81.0781 35.2058 79.9523 33.1833C78.8483 31.1998 76.2652 29.9257 73.376 30.3363C72.4817 30.4634 71.6537 29.8415 71.5267 28.9472C71.3996 28.053 72.0215 27.225 72.9158 27.0979Z" fill="white"/>
<path fill-rule="evenodd" clip-rule="evenodd" d="M121.163 12.3952C122.066 12.3952 122.799 13.1274 122.799 14.0307V43.3928C122.799 44.296 122.066 45.0282 121.163 45.0282C120.26 45.0282 119.528 44.296 119.528 43.3928V14.0307C119.528 13.1274 120.26 12.3952 121.163 12.3952Z" fill="white"/>
<path fill-rule="evenodd" clip-rule="evenodd" d="M119.984 12.748C120.61 12.0969 121.646 12.0767 122.297 12.7028L137.936 27.7418C138.587 28.3679 138.607 29.4032 137.981 30.0543C137.355 30.7053 136.319 30.7256 135.668 30.0995L120.03 15.0605C119.379 14.4344 119.358 13.399 119.984 12.748Z" fill="white"/>
<path fill-rule="evenodd" clip-rule="evenodd" d="M152.542 12.3952C153.446 12.3952 154.178 13.1274 154.178 14.0307V43.3928C154.178 44.296 153.446 45.0282 152.542 45.0282C151.639 45.0282 150.907 44.296 150.907 43.3928V14.0307C150.907 13.1274 151.639 12.3952 152.542 12.3952Z" fill="white"/>
<path fill-rule="evenodd" clip-rule="evenodd" d="M153.721 12.748C154.347 13.399 154.327 14.4344 153.676 15.0605L138.037 30.0995C137.386 30.7256 136.351 30.7053 135.725 30.0543C135.099 29.4032 135.119 28.3679 135.77 27.7418L151.409 12.7028C152.06 12.0767 153.095 12.0969 153.721 12.748Z" fill="white"/>
<path fill-rule="evenodd" clip-rule="evenodd" d="M19.975 11.828C19.1841 12.7159 18.9477 13.9067 18.8955 14.847V27.8631H3.15503V11.3448H6.06253V24.9556H15.988V14.7713L15.9899 14.7343C16.0506 13.5448 16.3481 11.5224 17.8117 9.8853L17.8161 9.88043L17.8205 9.8756C18.9773 8.60477 20.4475 8.01466 21.7605 7.73507C23.0425 7.4621 24.2791 7.46502 25.07 7.46688L25.103 7.46696H25.1046C30.1453 7.46696 36.4062 7.46696 43.8023 7.54336L43.7723 10.4507C36.3919 10.3745 30.1438 10.3745 25.103 10.3745L25.0997 10.3745C24.2897 10.3726 23.3258 10.3744 22.3661 10.5788C21.4199 10.7803 20.5877 11.1574 19.975 11.828Z" fill="#E9F7FF"/>
<path d="M11.2743 1.14317C8.42132 4.17787 6.42605 7.84132 6.06261 11.3449C6.03717 15.6661 5.77186 20.0456 4.60886 24.2323C4.03627 22.1225 3.65075 19.9662 3.45676 17.7886C3.24666 15.6144 3.14598 13.431 3.15511 11.2467C3.62394 6.69649 6.85127 2.41157 11.2888 1.12863L11.2743 1.14317Z" fill="#E9F7FF"/>
<path fill-rule="evenodd" clip-rule="evenodd" d="M31.341 3.55818C27.3082 3.52661 24.3067 3.50311 21.5282 3.8913L21.5075 3.89419L21.4867 3.89649C19.4448 4.12209 17.5054 4.90904 15.8837 6.16984L15.8676 6.18319C15.8476 6.19975 15.8188 6.22372 15.7846 6.25249C15.7182 6.30833 15.6353 6.37883 15.5578 6.44701C14.5244 7.39826 13.7017 8.55556 13.1429 9.84433C12.5822 11.1375 12.2997 12.5341 12.3138 13.9435L12.3138 13.9507V21.2267H9.40633V13.965C9.3893 12.1505 9.75349 10.3526 10.4754 8.68771C11.1982 7.02055 12.2636 5.52403 13.6023 4.29529L13.6128 4.28566L13.6235 4.27622C13.7283 4.18372 13.8353 4.09279 13.9139 4.02673C13.9537 3.99326 13.9874 3.96521 14.0114 3.94531L14.0399 3.92177L14.0514 3.91228C14.0514 3.91227 14.0515 3.91222 14.9742 5.03557L14.0514 3.91228L14.0655 3.90065L14.0799 3.88943C16.124 2.29451 18.57 1.2975 21.1463 1.00892C24.1466 0.5919 27.3808 0.618131 31.3648 0.650443C31.937 0.655083 32.5246 0.65985 33.1293 0.663446C34.7745 0.673232 36.0786 0.669257 37.4244 0.665155C40.0404 0.657181 42.814 0.648727 48.5571 0.739926L49.9878 0.762644V16.5057H31.387V13.5982H47.0803V3.62548C42.3153 3.55767 39.8396 3.56533 37.4679 3.57267C36.1169 3.57685 34.7995 3.58093 33.112 3.57089C32.4996 3.56725 31.91 3.56264 31.341 3.55818Z" fill="#E9F7FF"/>
<path d="M31.4633 13.6017V16.5092H23.2932V15.2554C23.2932 15.037 23.3365 14.8208 23.4205 14.6192C23.5045 14.4176 23.6276 14.2347 23.7827 14.0809C23.9378 13.9272 24.1218 13.8057 24.3241 13.7234C24.5264 13.6412 24.743 13.5998 24.9614 13.6017H31.4633Z" fill="#E9F7FF"/>
<path fill-rule="evenodd" clip-rule="evenodd" d="M34.2435 19.8057H49.984V36.3239H47.0765V22.7132H37.151V32.9265L37.1491 32.9635C37.0886 34.1496 36.7958 36.1762 35.3244 37.8121L35.3224 37.8143L35.3205 37.8165C34.165 39.0908 32.6944 39.6813 31.3812 39.9609C30.1115 40.2313 28.8842 40.231 28.0939 40.2309C28.0743 40.2309 28.055 40.2308 28.036 40.2308H28.0338C22.9932 40.2308 16.7362 40.2308 9.33667 40.1545L9.36669 37.2471C16.7508 37.3233 22.9952 37.3233 28.036 37.3233C28.8513 37.3233 29.8154 37.3217 30.7757 37.1172C31.7228 36.9155 32.5537 36.5381 33.1643 35.8659C33.9567 34.9836 34.1911 33.7954 34.2435 32.8508V19.8057Z" fill="#E9F7FF"/>
<path d="M41.8539 46.5256C44.7033 43.4909 46.6877 39.8275 47.0802 36.3239C47.1056 32.0027 47.3709 27.6232 48.5339 23.4328C49.1049 25.5438 49.4868 27.7014 49.6751 29.8802C49.8853 32.0544 49.986 34.2377 49.9768 36.4221C49.5079 40.9723 46.2806 45.2536 41.8467 46.5401L41.8539 46.5256Z" fill="#E9F7FF"/>
<path fill-rule="evenodd" clip-rule="evenodd" d="M40.8109 26.4384H43.7184V33.7C43.7353 35.515 43.3711 37.3133 42.6493 38.9787C41.9265 40.6464 40.8614 42.1435 39.5229 43.373L39.5122 43.3829L39.5013 43.3925C39.3964 43.485 39.2894 43.5759 39.2108 43.642C39.171 43.6755 39.1373 43.7035 39.1133 43.7234L39.0849 43.747L39.0768 43.7536L39.0745 43.7555L39.0737 43.7561L39.0734 43.7564C39.0734 43.7565 39.0733 43.7565 38.1505 42.6332L39.0734 43.7564L39.0599 43.7675L39.0462 43.7782C37.0042 45.3754 34.5589 46.3742 31.9829 46.6633C29.0071 47.0801 25.8 47.0555 21.863 47.0253C21.2598 47.0206 20.6395 47.0159 20.0002 47.0126C18.3978 47.0042 17.1203 47.0077 15.8141 47.0113C13.1665 47.0186 10.4009 47.0262 4.57191 46.9361L3.14062 46.914V31.1631H21.7377V34.0706H6.04812V44.05C10.8901 44.1174 13.3705 44.1105 15.7773 44.1038C17.0885 44.1002 18.3779 44.0966 20.0153 44.1051C20.6676 44.1085 21.2939 44.1131 21.897 44.1176C25.8759 44.1469 28.8461 44.1689 31.5986 43.7813L31.6199 43.7783L31.6414 43.7759C33.6826 43.55 35.6208 42.7618 37.2403 41.4994L37.2571 41.4855C37.2771 41.469 37.3059 41.445 37.3401 41.4162C37.4065 41.3605 37.4892 41.2901 37.5667 41.222C38.6001 40.2699 39.4227 39.1119 39.9815 37.8225C40.5423 36.5287 40.8249 35.1315 40.811 33.7215L40.8109 33.7143V26.4384Z" fill="#E9F7FF"/>
<path d="M21.6614 34.0706V31.1631H29.8314V32.4169C29.8314 32.6341 29.7887 32.8491 29.7056 33.0497C29.6225 33.2504 29.5007 33.4327 29.3471 33.5862C29.1936 33.7398 29.0113 33.8616 28.8106 33.9447C28.61 34.0278 28.395 34.0706 28.1778 34.0706H21.6614Z" fill="#E9F7FF"/>
</svg>
