<svg width="280" height="279" viewBox="0 0 280 279" fill="none" xmlns="http://www.w3.org/2000/svg">
<path d="M0.979492 139.569L279.521 278.84V0.289917L0.979492 139.569Z" fill="#1673AA"/>
<path d="M100.236 169.467H98.521V163.917H100.313C100.795 163.904 101.271 164.019 101.694 164.251C102.076 164.471 102.383 164.802 102.573 165.2C102.791 165.663 102.897 166.171 102.882 166.683C102.895 167.197 102.789 167.706 102.573 168.173C102.379 168.578 102.064 168.913 101.672 169.132C101.231 169.368 100.736 169.483 100.236 169.467ZM99.1934 168.871H100.193C100.59 168.886 100.984 168.794 101.334 168.605C101.634 168.433 101.87 168.167 102.006 167.849C102.304 167.103 102.304 166.27 102.006 165.523C101.872 165.212 101.643 164.95 101.352 164.775C101.019 164.59 100.642 164.499 100.262 164.513H99.1715L99.1934 168.871Z" fill="#D1EEFF"/>
<path d="M104.681 163.917V169.467H104.012V163.917H104.681Z" fill="#D1EEFF"/>
<path d="M109.828 165.651C109.771 165.477 109.692 165.312 109.591 165.16C109.493 165.018 109.37 164.895 109.228 164.797C109.094 164.69 108.941 164.61 108.777 164.56C108.599 164.504 108.412 164.475 108.225 164.477C107.907 164.475 107.596 164.563 107.327 164.731C107.046 164.915 106.824 165.176 106.687 165.483C106.368 166.264 106.368 167.138 106.687 167.919C106.828 168.226 107.056 168.486 107.342 168.667C107.62 168.838 107.942 168.926 108.268 168.922C108.562 168.929 108.853 168.859 109.112 168.718C109.352 168.582 109.549 168.38 109.679 168.137C109.822 167.865 109.894 167.561 109.886 167.253L110.089 167.297H108.421V166.701H110.554V167.297C110.565 167.714 110.463 168.125 110.26 168.489C110.073 168.821 109.796 169.093 109.46 169.274C109.099 169.464 108.695 169.559 108.287 169.55C107.831 169.561 107.382 169.441 106.993 169.205C106.614 168.966 106.313 168.623 106.124 168.217C105.907 167.742 105.801 167.223 105.815 166.701C105.809 166.299 105.869 165.899 105.993 165.516C106.098 165.185 106.269 164.879 106.495 164.615C106.706 164.371 106.97 164.178 107.265 164.048C107.573 163.911 107.906 163.843 108.243 163.848C108.522 163.846 108.8 163.89 109.064 163.979C109.309 164.061 109.539 164.184 109.744 164.342C109.943 164.5 110.112 164.694 110.242 164.913C110.378 165.136 110.473 165.383 110.522 165.64L109.828 165.651Z" fill="#D1EEFF"/>
<path d="M112.372 163.917V169.467H111.699V163.917H112.372Z" fill="#D1EEFF"/>
<path d="M113.407 164.513V163.917H117.569V164.513H115.824V169.467H115.152V164.513H113.407Z" fill="#D1EEFF"/>
<path d="M118.187 169.467H117.485L119.52 163.917H120.215L122.254 169.467H121.548L119.891 164.808H119.848L118.187 169.467ZM118.448 167.286H121.29V167.882H118.448V167.286Z" fill="#D1EEFF"/>
<path d="M123.122 169.467V163.917H123.794V168.871H126.375V169.467H123.122Z" fill="#D1EEFF"/>
<path d="M132.597 165.305C132.585 165.175 132.542 165.05 132.474 164.939C132.405 164.828 132.312 164.735 132.201 164.666C131.946 164.507 131.65 164.427 131.35 164.437C131.13 164.432 130.911 164.472 130.707 164.557C130.537 164.625 130.389 164.738 130.278 164.884C130.177 165.022 130.124 165.189 130.126 165.36C130.126 165.488 130.162 165.614 130.231 165.723C130.303 165.829 130.398 165.918 130.507 165.985C130.622 166.055 130.744 166.112 130.871 166.156C130.994 166.199 131.107 166.236 131.209 166.265L131.772 166.414C131.917 166.454 132.077 166.505 132.255 166.57C132.436 166.641 132.608 166.732 132.768 166.843C132.933 166.96 133.071 167.111 133.175 167.286C133.287 167.487 133.342 167.714 133.335 167.944C133.337 168.232 133.255 168.515 133.098 168.758C132.93 169.01 132.693 169.209 132.415 169.332C132.073 169.486 131.7 169.559 131.325 169.547C130.971 169.556 130.619 169.491 130.293 169.354C130.021 169.241 129.785 169.056 129.609 168.82C129.443 168.585 129.347 168.308 129.33 168.02H130.024C130.034 168.211 130.108 168.393 130.235 168.536C130.363 168.677 130.526 168.782 130.707 168.842C130.906 168.908 131.115 168.941 131.325 168.94C131.561 168.944 131.795 168.902 132.015 168.816C132.206 168.74 132.373 168.614 132.499 168.453C132.619 168.302 132.683 168.115 132.68 167.922C132.687 167.758 132.631 167.597 132.524 167.471C132.413 167.347 132.273 167.251 132.117 167.192C131.94 167.115 131.758 167.05 131.572 166.999L130.889 166.806C130.51 166.707 130.159 166.525 129.86 166.272C129.738 166.155 129.643 166.014 129.58 165.857C129.517 165.7 129.489 165.532 129.497 165.363C129.49 165.072 129.578 164.787 129.748 164.549C129.924 164.312 130.16 164.125 130.431 164.008C130.734 163.874 131.062 163.807 131.394 163.812C131.722 163.806 132.046 163.872 132.346 164.004C132.608 164.118 132.837 164.297 133.011 164.524C133.172 164.742 133.262 165.005 133.269 165.276L132.597 165.305Z" fill="#D1EEFF"/>
<path d="M135.101 163.917V169.467H134.429V163.917H135.101Z" fill="#D1EEFF"/>
<path d="M140.24 165.651C140.179 165.481 140.096 165.319 139.993 165.171C139.9 165.031 139.783 164.908 139.648 164.807C139.513 164.701 139.361 164.621 139.197 164.571C139.018 164.514 138.832 164.486 138.644 164.488C138.327 164.486 138.016 164.574 137.747 164.742C137.466 164.926 137.244 165.187 137.107 165.494C136.787 166.275 136.787 167.149 137.107 167.929C137.249 168.236 137.476 168.496 137.761 168.678C138.04 168.849 138.361 168.937 138.688 168.932C138.982 168.94 139.273 168.87 139.531 168.729C139.772 168.594 139.969 168.392 140.098 168.147C140.242 167.876 140.313 167.572 140.305 167.264L140.509 167.308H138.841V166.712H140.956V167.308C140.966 167.724 140.864 168.136 140.661 168.5C140.474 168.832 140.197 169.104 139.862 169.285C139.5 169.475 139.096 169.57 138.688 169.561C138.233 169.572 137.784 169.452 137.394 169.216C137.016 168.977 136.714 168.633 136.526 168.227C136.308 167.752 136.203 167.234 136.217 166.712C136.21 166.31 136.27 165.909 136.395 165.527C136.501 165.197 136.672 164.89 136.896 164.626C137.108 164.382 137.371 164.188 137.667 164.059C137.975 163.923 138.308 163.854 138.644 163.859C138.924 163.857 139.201 163.901 139.466 163.99C139.711 164.072 139.941 164.195 140.145 164.353C140.345 164.512 140.515 164.705 140.647 164.924C140.78 165.148 140.874 165.394 140.923 165.651H140.24Z" fill="#D1EEFF"/>
<path d="M146.535 163.917V169.467H145.884L142.86 165.106H142.806V169.467H142.133V163.917H142.784L145.819 168.278H145.873V163.917H146.535Z" fill="#D1EEFF"/>
<path d="M148.087 169.467H147.381L149.42 163.917H150.115L152.153 169.467H151.448L149.806 164.808H149.762L148.087 169.467ZM148.348 167.286H151.187V167.882H148.352L148.348 167.286Z" fill="#D1EEFF"/>
<path d="M153.022 169.467V163.917H153.694V168.871H156.271V169.467H153.022Z" fill="#D1EEFF"/>
<path d="M159.095 169.467V163.917H160.97C161.342 163.903 161.711 163.984 162.043 164.153C162.308 164.295 162.522 164.516 162.657 164.786C162.794 165.061 162.864 165.365 162.86 165.672C162.863 165.982 162.795 166.288 162.66 166.567C162.524 166.835 162.31 167.057 162.046 167.203C161.718 167.375 161.351 167.457 160.981 167.442H159.64V166.846H160.963C161.215 166.858 161.465 166.804 161.69 166.69C161.863 166.596 162.001 166.45 162.086 166.272C162.168 166.083 162.21 165.88 162.21 165.674C162.21 165.469 162.168 165.265 162.086 165.076C162.002 164.899 161.861 164.755 161.686 164.666C161.461 164.554 161.211 164.501 160.96 164.513H159.775V169.467H159.095Z" fill="#D1EEFF"/>
<path d="M168.624 166.694C168.638 167.217 168.53 167.735 168.308 168.209C168.117 168.614 167.816 168.956 167.44 169.198C167.057 169.424 166.621 169.543 166.177 169.543C165.732 169.543 165.296 169.424 164.914 169.198C164.536 168.956 164.234 168.614 164.041 168.209C163.833 167.731 163.725 167.214 163.725 166.692C163.725 166.17 163.833 165.653 164.041 165.175C164.234 164.771 164.536 164.429 164.914 164.19C165.295 163.961 165.732 163.841 166.177 163.841C166.621 163.841 167.058 163.961 167.44 164.19C167.816 164.43 168.117 164.771 168.308 165.175C168.529 165.65 168.637 166.17 168.624 166.694ZM167.978 166.694C167.989 166.275 167.906 165.859 167.734 165.476C167.595 165.169 167.37 164.908 167.087 164.724C166.813 164.559 166.499 164.472 166.178 164.472C165.858 164.472 165.544 164.559 165.27 164.724C164.988 164.909 164.763 165.169 164.623 165.476C164.303 166.256 164.303 167.131 164.623 167.911C164.762 168.218 164.987 168.478 165.27 168.66C165.544 168.825 165.858 168.912 166.178 168.912C166.499 168.912 166.813 168.825 167.087 168.66C167.371 168.478 167.596 168.218 167.734 167.911C167.906 167.529 167.989 167.113 167.978 166.694Z" fill="#D1EEFF"/>
<path d="M170.761 169.467L169.242 163.917H169.926L171.089 168.438H171.143L172.339 163.917H173.066L174.265 168.442H174.316L175.479 163.921H176.162L174.643 169.47H173.949L172.724 165.047H172.68L171.456 169.47L170.761 169.467Z" fill="#D1EEFF"/>
<path d="M176.994 169.467V163.917H180.334V164.513H177.656V166.388H180.16V166.988H177.656V168.874H180.378V169.47L176.994 169.467Z" fill="#D1EEFF"/>
<path d="M181.559 169.467V163.917H183.435C183.803 163.903 184.17 163.979 184.503 164.139C184.768 164.271 184.984 164.483 185.121 164.746C185.258 165.016 185.327 165.315 185.321 165.618C185.328 165.921 185.259 166.221 185.121 166.49C184.982 166.747 184.767 166.955 184.507 167.086C184.175 167.24 183.811 167.314 183.445 167.301H181.926V166.694H183.424C183.673 166.705 183.921 166.661 184.151 166.563C184.32 166.49 184.459 166.362 184.547 166.199C184.634 166.021 184.677 165.824 184.67 165.625C184.675 165.424 184.633 165.225 184.547 165.044C184.46 164.874 184.319 164.739 184.147 164.658C183.918 164.557 183.67 164.51 183.42 164.52H182.239V169.474L181.559 169.467ZM184.172 166.974L185.539 169.467H184.757L183.413 166.974H184.172Z" fill="#D1EEFF"/>
<path d="M188.221 163.917H189.024L190.91 168.525H190.976L192.862 163.917H193.662V169.467H193.033V165.251H192.978L191.237 169.467H190.631L188.897 165.251H188.842V169.467H188.221V163.917Z" fill="#D1EEFF"/>
<path d="M195.235 169.467H194.53L196.569 163.917H197.263L199.302 169.467H198.597L196.936 164.808H196.893L195.235 169.467ZM195.493 167.286H198.335V167.882H195.493V167.286Z" fill="#D1EEFF"/>
<path d="M204.568 163.917V169.467H203.918L200.894 165.106H200.839V169.467H200.167V163.917H200.818L203.852 168.278H203.907V163.917H204.568Z" fill="#D1EEFF"/>
<path d="M209.555 163.917H210.227V167.591C210.234 167.949 210.142 168.301 209.962 168.609C209.78 168.908 209.52 169.15 209.209 169.311C208.854 169.478 208.465 169.565 208.072 169.565C207.679 169.565 207.29 169.478 206.934 169.311C206.624 169.15 206.363 168.908 206.182 168.609C206.001 168.301 205.907 167.949 205.913 167.591V163.917H206.585V167.551C206.58 167.805 206.642 168.056 206.764 168.278C206.883 168.49 207.061 168.662 207.276 168.776C207.525 168.894 207.797 168.954 208.072 168.954C208.347 168.954 208.619 168.894 208.868 168.776C209.083 168.662 209.26 168.49 209.38 168.278C209.501 168.055 209.561 167.805 209.555 167.551V163.917Z" fill="#D1EEFF"/>
<path d="M211.59 169.467V163.917H214.919V164.513H212.244V166.388H214.65V166.988H212.244V169.47L211.59 169.467Z" fill="#D1EEFF"/>
<path d="M215.588 169.467H214.883L216.922 163.917H217.616L219.655 169.467H218.95L217.285 164.808H217.241L215.588 169.467ZM215.849 167.286H218.688V167.882H215.849V167.286Z" fill="#D1EEFF"/>
<path d="M224.725 165.651H224.052C224.016 165.469 223.946 165.297 223.845 165.142C223.746 165.001 223.623 164.878 223.482 164.778C223.34 164.678 223.183 164.602 223.016 164.553C222.844 164.502 222.666 164.476 222.486 164.477C222.164 164.474 221.848 164.562 221.574 164.731C221.29 164.915 221.066 165.176 220.927 165.483C220.607 166.264 220.607 167.138 220.927 167.919C221.065 168.226 221.29 168.486 221.574 168.667C221.847 168.838 222.164 168.926 222.486 168.922C222.666 168.922 222.844 168.897 223.016 168.845C223.184 168.799 223.342 168.723 223.482 168.62C223.624 168.522 223.747 168.399 223.845 168.257C223.947 168.102 224.017 167.929 224.052 167.748H224.725C224.678 168.016 224.584 168.275 224.448 168.511C224.317 168.73 224.147 168.923 223.947 169.082C223.747 169.241 223.521 169.364 223.278 169.445C223.023 169.515 222.758 169.544 222.493 169.532C222.048 169.541 221.61 169.421 221.232 169.187C220.853 168.947 220.551 168.604 220.36 168.198C220.151 167.72 220.043 167.203 220.043 166.681C220.043 166.159 220.151 165.642 220.36 165.164C220.551 164.759 220.854 164.418 221.232 164.179C221.608 163.938 222.046 163.812 222.493 163.815C222.761 163.813 223.028 163.854 223.282 163.939C223.525 164.019 223.751 164.142 223.95 164.302C224.151 164.459 224.321 164.651 224.452 164.869C224.589 165.111 224.681 165.376 224.725 165.651Z" fill="#D1EEFF"/>
<path d="M225.502 164.513V163.917H229.667V164.513H227.919V169.467H227.247V164.513H225.502Z" fill="#D1EEFF"/>
<path d="M234.348 163.917H235.021V167.591C235.028 167.949 234.936 168.301 234.755 168.609C234.574 168.908 234.314 169.15 234.003 169.311C233.647 169.478 233.259 169.565 232.866 169.565C232.472 169.565 232.084 169.478 231.728 169.311C231.417 169.15 231.157 168.908 230.976 168.609C230.794 168.301 230.701 167.949 230.707 167.591V163.917H231.379V167.551C231.374 167.805 231.435 168.056 231.557 168.278C231.677 168.49 231.855 168.662 232.07 168.776C232.319 168.894 232.59 168.954 232.866 168.954C233.141 168.954 233.413 168.894 233.662 168.776C233.876 168.662 234.054 168.49 234.174 168.278C234.294 168.055 234.355 167.805 234.348 167.551V163.917Z" fill="#D1EEFF"/>
<path d="M236.365 169.467V163.917H238.241C238.61 163.902 238.977 163.978 239.309 164.139C239.574 164.271 239.79 164.483 239.927 164.746C240.064 165.016 240.133 165.315 240.127 165.618C240.134 165.921 240.065 166.221 239.927 166.49C239.788 166.747 239.574 166.955 239.313 167.086C238.981 167.24 238.617 167.314 238.252 167.301H236.736V166.694H238.23C238.479 166.706 238.728 166.661 238.957 166.563C239.126 166.49 239.265 166.362 239.353 166.199C239.44 166.021 239.483 165.824 239.477 165.625C239.482 165.424 239.439 165.225 239.353 165.044C239.267 164.874 239.126 164.738 238.953 164.658C238.725 164.557 238.476 164.51 238.226 164.52H237.031V169.474L236.365 169.467ZM238.979 166.974L240.345 169.467H239.575L238.23 166.974H238.979Z" fill="#D1EEFF"/>
<path d="M241.919 163.917V169.467H241.246V163.917H241.919Z" fill="#D1EEFF"/>
<path d="M247.661 163.917V169.467H247.011L243.987 165.106H243.936V169.467H243.264V163.917H243.914L246.952 168.278H247.003V163.917H247.661Z" fill="#D1EEFF"/>
<path d="M252.8 165.651C252.745 165.477 252.667 165.312 252.568 165.16C252.468 165.019 252.345 164.896 252.204 164.797C252.07 164.691 251.917 164.611 251.753 164.56C251.575 164.504 251.388 164.475 251.201 164.477C250.884 164.474 250.572 164.563 250.303 164.731C250.022 164.916 249.799 165.177 249.66 165.483C249.493 165.867 249.412 166.283 249.424 166.701C249.411 167.12 249.493 167.536 249.664 167.919C249.8 168.222 250.022 168.479 250.303 168.658C250.584 168.836 250.912 168.928 251.245 168.922C251.538 168.928 251.827 168.858 252.084 168.718C252.326 168.583 252.524 168.381 252.655 168.137C252.796 167.864 252.866 167.56 252.858 167.253L253.065 167.297H251.397V166.701H253.509V167.297C253.519 167.713 253.418 168.124 253.218 168.489C253.03 168.822 252.752 169.094 252.415 169.274C252.055 169.464 251.652 169.559 251.245 169.55C250.789 169.562 250.34 169.442 249.951 169.205C249.572 168.966 249.271 168.623 249.082 168.217C248.865 167.742 248.759 167.223 248.773 166.701C248.767 166.299 248.826 165.899 248.948 165.516C249.055 165.186 249.227 164.879 249.453 164.615C249.665 164.371 249.928 164.178 250.223 164.048C250.531 163.911 250.865 163.843 251.201 163.848C251.479 163.846 251.755 163.89 252.019 163.979C252.265 164.061 252.496 164.184 252.702 164.342C252.9 164.502 253.068 164.695 253.2 164.913C253.335 165.137 253.428 165.383 253.476 165.64L252.8 165.651Z" fill="#D1EEFF"/>
<path fill-rule="evenodd" clip-rule="evenodd" d="M160.033 121.177H180.189C181.092 121.177 181.824 121.909 181.824 122.812C181.824 123.715 181.092 124.448 180.189 124.448H160.025L160.021 124.448C159.613 124.446 159.207 124.516 158.823 124.656C157.527 125.136 155.503 126.238 154.745 128.518L154.743 128.523L154.742 128.527C154.629 128.859 153.976 130.999 155.102 133.022C156.206 135.005 158.789 136.279 161.678 135.869C162.572 135.742 163.4 136.363 163.527 137.258C163.654 138.152 163.032 138.98 162.138 139.107C158.122 139.678 154.105 137.957 152.244 134.613C150.409 131.317 151.466 128.002 151.642 127.482C152.876 123.777 156.081 122.183 157.692 121.587L157.695 121.586L157.698 121.585C158.446 121.312 159.236 121.174 160.033 121.177Z" fill="white"/>
<path fill-rule="evenodd" clip-rule="evenodd" d="M206.756 124.57C206.513 124.489 206.257 124.447 206 124.448L205.997 124.448H185.644C184.741 124.448 184.009 123.716 184.009 122.812C184.009 121.909 184.741 121.177 185.644 121.177H205.995C206.607 121.176 207.215 121.274 207.795 121.469C209.314 121.976 212.865 123.532 214.181 127.486L214.182 127.489C214.344 127.977 215.419 131.306 213.579 134.613C211.736 137.923 207.814 139.628 203.862 139.131H188.952V152.345C188.952 153.248 188.219 153.981 187.316 153.981C186.413 153.981 185.681 153.248 185.681 152.345V138.411C185.681 137.734 185.949 137.085 186.428 136.607C186.906 136.128 187.555 135.86 188.232 135.86H204.08L204.19 135.875C207.061 136.267 209.615 135.007 210.721 133.022C211.843 131.005 211.194 128.872 211.077 128.517C210.264 126.076 208.001 124.986 206.758 124.571L206.756 124.57Z" fill="white"/>
<path fill-rule="evenodd" clip-rule="evenodd" d="M170.866 136.029C174.882 135.458 178.899 137.179 180.76 140.523C182.595 143.819 181.537 147.135 181.361 147.654C180.503 150.227 178.689 151.785 177.15 152.684C175.617 153.578 174.252 153.883 174.051 153.925L173.887 153.959H152.815C151.912 153.959 151.179 153.227 151.179 152.323C151.179 151.42 151.912 150.688 152.815 150.688H173.527C173.639 150.659 173.813 150.609 174.03 150.533C174.426 150.396 174.95 150.18 175.501 149.859C176.607 149.213 177.732 148.2 178.259 146.617L178.261 146.612L178.262 146.608C178.375 146.277 179.028 144.136 177.902 142.114C176.798 140.13 174.215 138.856 171.326 139.267C170.432 139.394 169.604 138.772 169.477 137.878C169.35 136.984 169.971 136.156 170.866 136.029Z" fill="white"/>
<path fill-rule="evenodd" clip-rule="evenodd" d="M219.113 121.326C220.016 121.326 220.749 122.058 220.749 122.961V152.323C220.749 153.227 220.016 153.959 219.113 153.959C218.21 153.959 217.478 153.227 217.478 152.323V122.961C217.478 122.058 218.21 121.326 219.113 121.326Z" fill="white"/>
<path fill-rule="evenodd" clip-rule="evenodd" d="M217.934 121.679C218.56 121.028 219.596 121.007 220.247 121.633L235.885 136.672C236.537 137.299 236.557 138.334 235.931 138.985C235.305 139.636 234.269 139.656 233.618 139.03L217.98 123.991C217.328 123.365 217.308 122.33 217.934 121.679Z" fill="white"/>
<path fill-rule="evenodd" clip-rule="evenodd" d="M250.492 121.326C251.396 121.326 252.128 122.058 252.128 122.961V152.323C252.128 153.227 251.396 153.959 250.492 153.959C249.589 153.959 248.857 153.227 248.857 152.323V122.961C248.857 122.058 249.589 121.326 250.492 121.326Z" fill="white"/>
<path fill-rule="evenodd" clip-rule="evenodd" d="M251.671 121.679C252.297 122.33 252.277 123.365 251.626 123.991L235.987 139.03C235.336 139.656 234.301 139.636 233.675 138.985C233.049 138.334 233.069 137.299 233.72 136.672L249.359 121.633C250.01 121.007 251.045 121.028 251.671 121.679Z" fill="white"/>
<path fill-rule="evenodd" clip-rule="evenodd" d="M117.925 120.759C117.134 121.647 116.898 122.837 116.845 123.778V136.794H101.105V120.275H104.012V133.886H113.938V123.702L113.94 123.665C114.001 122.475 114.298 120.453 115.762 118.816L115.766 118.811L115.77 118.806C116.927 117.535 118.397 116.945 119.71 116.666C120.992 116.393 122.229 116.396 123.02 116.398L123.053 116.398H123.055C128.095 116.398 134.356 116.398 141.752 116.474L141.722 119.381C134.342 119.305 128.094 119.305 123.053 119.305L123.05 119.305C122.24 119.303 121.276 119.305 120.316 119.509C119.37 119.711 118.538 120.088 117.925 120.759Z" fill="#E9F7FF"/>
<path d="M109.224 110.074C106.371 113.109 104.376 116.772 104.013 120.276C103.987 124.597 103.722 128.976 102.559 133.163C101.986 131.053 101.601 128.897 101.407 126.719C101.197 124.545 101.096 122.362 101.105 120.177C101.574 115.627 104.801 111.342 109.239 110.059L109.224 110.074Z" fill="#E9F7FF"/>
<path fill-rule="evenodd" clip-rule="evenodd" d="M129.291 112.489C125.258 112.457 122.257 112.434 119.478 112.822L119.457 112.825L119.437 112.827C117.395 113.053 115.455 113.84 113.834 115.1L113.817 115.114C113.797 115.13 113.769 115.154 113.734 115.183C113.668 115.239 113.585 115.309 113.508 115.378C112.474 116.329 111.652 117.486 111.093 118.775C110.532 120.068 110.25 121.465 110.264 122.874L110.264 122.881V130.157H107.356V122.896C107.339 121.081 107.703 119.283 108.425 117.618C109.148 115.951 110.213 114.455 111.552 113.226L111.563 113.216L111.573 113.207C111.678 113.114 111.785 113.023 111.864 112.957C111.904 112.924 111.937 112.896 111.961 112.876L111.99 112.852L112.001 112.843C112.001 112.843 112.001 112.843 112.924 113.966L112.001 112.843L112.015 112.831L112.03 112.82C114.074 111.225 116.52 110.228 119.096 109.94C122.096 109.523 125.331 109.549 129.315 109.581C129.887 109.586 130.474 109.59 131.079 109.594C132.724 109.604 134.028 109.6 135.374 109.596C137.99 109.588 140.764 109.579 146.507 109.671L147.938 109.693V125.436H129.337V122.529H145.03V112.556C140.265 112.488 137.789 112.496 135.418 112.503C134.067 112.508 132.749 112.512 131.062 112.502C130.449 112.498 129.86 112.493 129.291 112.489Z" fill="#E9F7FF"/>
<path d="M129.413 122.532V125.44H121.243V124.186C121.243 123.968 121.286 123.751 121.37 123.55C121.454 123.348 121.578 123.165 121.733 123.012C121.888 122.858 122.072 122.736 122.274 122.654C122.476 122.572 122.693 122.53 122.911 122.532H129.413Z" fill="#E9F7FF"/>
<path fill-rule="evenodd" clip-rule="evenodd" d="M132.193 128.736H147.934V145.255H145.026V131.644H135.101V141.857L135.099 141.894C135.039 143.08 134.746 145.107 133.274 146.743L133.272 146.745L133.27 146.747C132.115 148.021 130.644 148.612 129.331 148.892C128.061 149.162 126.834 149.162 126.044 149.162C126.024 149.162 126.005 149.161 125.986 149.161H125.984C120.943 149.161 114.686 149.161 107.287 149.085L107.317 146.178C114.701 146.254 120.945 146.254 125.986 146.254C126.801 146.254 127.765 146.252 128.726 146.048C129.673 145.846 130.504 145.469 131.114 144.797C131.907 143.914 132.141 142.726 132.193 141.781V128.736Z" fill="#E9F7FF"/>
<path d="M139.804 155.456C142.653 152.422 144.638 148.758 145.03 145.255C145.056 140.933 145.321 136.554 146.484 132.363C147.055 134.474 147.437 136.632 147.625 138.811C147.835 140.985 147.936 143.168 147.927 145.353C147.458 149.903 144.231 154.184 139.797 155.471L139.804 155.456Z" fill="#E9F7FF"/>
<path fill-rule="evenodd" clip-rule="evenodd" d="M138.761 135.369H141.668V142.631C141.685 144.446 141.321 146.244 140.599 147.909C139.876 149.577 138.811 151.074 137.473 152.304L137.462 152.314L137.451 152.323C137.346 152.416 137.239 152.507 137.161 152.573C137.121 152.606 137.087 152.634 137.063 152.654L137.035 152.678L137.027 152.684L137.024 152.686L137.024 152.687L137.023 152.687C137.023 152.687 137.023 152.687 136.1 151.564L137.023 152.687L137.01 152.698L136.996 152.709C134.954 154.306 132.509 155.305 129.933 155.594C126.957 156.011 123.75 155.986 119.813 155.956C119.21 155.951 118.589 155.947 117.95 155.943C116.348 155.935 115.07 155.938 113.764 155.942C111.116 155.949 108.351 155.957 102.522 155.867L101.09 155.845V140.094H119.688V143.001H103.998V152.981C108.84 153.048 111.32 153.041 113.727 153.034C115.038 153.031 116.328 153.027 117.965 153.036C118.617 153.039 119.244 153.044 119.847 153.048C123.826 153.078 126.796 153.1 129.548 152.712L129.57 152.709L129.591 152.707C131.632 152.481 133.571 151.692 135.19 150.43L135.207 150.416C135.227 150.4 135.256 150.376 135.29 150.347C135.356 150.291 135.439 150.221 135.517 150.153C136.55 149.201 137.373 148.043 137.931 146.753C138.492 145.459 138.775 144.062 138.761 142.652L138.761 142.645V135.369Z" fill="#E9F7FF"/>
<path d="M119.611 143.001V140.094H127.781V141.348C127.781 141.565 127.739 141.78 127.656 141.98C127.572 142.181 127.451 142.363 127.297 142.517C127.144 142.67 126.961 142.792 126.761 142.875C126.56 142.958 126.345 143.001 126.128 143.001H119.611Z" fill="#E9F7FF"/>
</svg>
